<svg id="Слой_1" data-name="Слой 1" xmlns="http://www.w3.org/2000/svg" viewBox="0 0 512 512"><defs><style>.cls-1{fill:#1976d2;}.cls-2{fill:#fff;}</style></defs><path class="cls-1" d="M33.4,35.55C-6.72,77.21,1.49,121.47,1.49,255.92,1.49,367.58-18,479.51,84,505.86c31.85,8.19,314,8.19,345.8,0,42.46-10.95,77-45.38,81.73-105.42.66-8.38.66-280.42,0-289-5-64-44.4-100.81-96.28-108.27C403.32,1.43,400.94.92,339.93.82,123.53.92,76.09-8.71,33.4,35.55Z"/><path class="cls-2" d="M304.6,161.52h27.93v-45a387.57,387.57,0,0,0-40.7-2c-40.3,0-67.89,23.42-67.89,66.46v39.63H179.47v50.28h44.47V397.45h54.52V270.93h42.67l6.77-50.29H278.44V186c0-14.54,4.24-24.49,26.16-24.49Z"/></svg>