<svg id="Слой_1" data-name="Слой 1" xmlns="http://www.w3.org/2000/svg" xmlns:xlink="http://www.w3.org/1999/xlink" viewBox="0 0 512 512"><defs><style>.cls-1{fill:url(#Безымянный_градиент);}.cls-2{fill:#fff;}</style><linearGradient id="Безымянный_градиент" x1="-326.78" y1="876.93" x2="-316.26" y2="888.24" gradientTransform="translate(-34463.05 -13338.64) rotate(-90) scale(42.28 39.34)" gradientUnits="userSpaceOnUse"><stop offset="0" stop-color="#fd5"/><stop offset="0.5" stop-color="#ff543e"/><stop offset="1" stop-color="#c837ab"/></linearGradient></defs><path class="cls-1" d="M33.4,35.55C-6.72,77.21,1.49,121.47,1.49,255.92,1.49,367.58-18,479.51,84,505.86c31.85,8.19,314,8.19,345.8,0,42.46-10.95,77-45.38,81.73-105.42.66-8.38.66-280.42,0-289-5-64-44.4-100.81-96.28-108.27C403.32,1.43,400.94.92,339.93.82,123.53.92,76.09-8.71,33.4,35.55Z"/><path class="cls-2" d="M256,108c-60.64,0-118.23-5.4-140.22,51.05C106.65,182.39,108,212.67,108,256c0,38-1.22,73.8,7.77,96.93,21.94,56.48,80,51.07,140.18,51.07,58.07,0,117.94,6,140.2-51.07,9.11-23.55,7.77-53.38,7.77-96.93,0-57.82,3.19-95.15-24.85-123.17C350.65,104.47,312.25,108,255.89,108ZM242.7,134.7c126.49-.2,142.59-14.27,133.7,181.08-3.16,69.09-55.76,61.51-120.43,61.51-117.9,0-121.29-3.37-121.29-121.33,0-119.33,9.35-121.2,108-121.3ZM335,159.26A17.76,17.76,0,1,0,352.7,177,17.76,17.76,0,0,0,335,159.26ZM256,180a76,76,0,1,0,76,76,76,76,0,0,0-76-76Zm0,26.67c65.21,0,65.3,98.67,0,98.67S190.66,206.69,256,206.69Z"/></svg>