<?xml version="1.0" encoding="utf-8"?>
<!-- Generator: Adobe Illustrator 24.3.0, SVG Export Plug-In . SVG Version: 6.00 Build 0)  -->
<svg version="1.1" id="Слой_1" xmlns="http://www.w3.org/2000/svg" xmlns:xlink="http://www.w3.org/1999/xlink" x="0px" y="0px"
	 viewBox="0 0 512 512" style="enable-background:new 0 0 512 512;" xml:space="preserve">
<style type="text/css">
	.st0{fill:#E21A20;}
</style>
<path class="st0" d="M224.7,304l83.3-48l-83.3-48V304z"/>
<path class="st0" d="M395.3,0H117.2C52.8,0,0.6,52.3,0.6,116.8v278.4C0.6,459.7,52.8,512,117.2,512h278.1
	c64.4,0,116.7-52.3,116.7-116.8V116.8C512,52.3,459.8,0,395.3,0z M416.1,256.3c0,0,0,51.9-6.6,77c-3.7,13.7-14.5,24.5-28.2,28.2
	c-25,6.6-125,6.6-125,6.6s-99.8,0-125-6.9c-13.7-3.7-24.5-14.5-28.2-28.2c-6.6-24.8-6.6-76.9-6.6-76.9s0-51.9,6.6-76.9
	c3.7-13.7,14.7-24.8,28.2-28.5c25-6.6,125-6.6,125-6.6s100,0,125,6.9c13.7,3.7,24.5,14.5,28.2,28.2
	C416.3,204.1,416.1,256.3,416.1,256.3z"/>
</svg>
