<?xml version="1.0" standalone="no"?>
<!DOCTYPE svg PUBLIC "-//W3C//DTD SVG 20010904//EN"
 "http://www.w3.org/TR/2001/REC-SVG-20010904/DTD/svg10.dtd">
<svg version="1.0" xmlns="http://www.w3.org/2000/svg"
 width="512.000000pt" height="512.000000pt" viewBox="0 0 512.000000 512.000000"
 preserveAspectRatio="xMidYMid meet">
<metadata>
Created by potrace 1.11, written by Peter Selinger 2001-2013
</metadata>
<g transform="translate(0.000000,512.000000) scale(0.100000,-0.100000)"
fill="#000000" stroke="none">
<path d="M2362 5090 c-848 -66 -1599 -548 -2021 -1297 -160 -285 -270 -644
-302 -987 -14 -157 -7 -448 16 -596 81 -531 327 -1021 705 -1400 432 -434 979
-687 1601 -741 242 -21 554 5 803 66 928 228 1653 967 1860 1895 77 350 78
764 1 1096 -227 983 -999 1731 -1985 1923 -210 41 -472 57 -678 41z"/>
</g>
</svg>
