<svg width="28" height="28" viewBox="0 0 28 28" fill="none" xmlns="http://www.w3.org/2000/svg">
    <path d="M14 0C6.2681 0 0 6.2681 0 14C0 21.7319 6.2681 28 14 28C21.7319 28 28 21.7319 28 14C27.9913 6.27174 21.7283 0.00865888 14 0ZM14 27.0667C6.78353 27.0667 0.933333 21.2165 0.933333 14C0.933333 6.78353 6.78353 0.933333 14 0.933333C21.2165 0.933333 27.0667 6.78353 27.0667 14C27.0585 21.2131 21.2131 27.0585 14 27.0667Z" fill="#FF0000"/>
    <path d="M13.9998 2.80005C7.81419 2.80005 2.7998 7.81444 2.7998 14C2.7998 20.1857 7.81419 25.2 13.9998 25.2C20.1854 25.2 25.1998 20.1857 25.1998 14C25.1925 7.8174 20.1825 2.80734 13.9998 2.80005ZM14.4665 24.2551V22.8667C14.4665 22.609 14.2575 22.4 13.9998 22.4C13.7421 22.4 13.5331 22.609 13.5331 22.8667V24.2551C8.23301 24.0076 3.99222 19.7668 3.74476 14.4667H5.13314C5.39085 14.4667 5.5998 14.2578 5.5998 14C5.5998 13.7423 5.39085 13.5334 5.13314 13.5334H3.74476C3.99222 8.23325 8.23301 3.99246 13.5331 3.745V5.13338C13.5331 5.3911 13.7421 5.60005 13.9998 5.60005C14.2575 5.60005 14.4665 5.3911 14.4665 5.13338V3.745C19.7666 3.99246 24.0074 8.23325 24.2549 13.5334H22.8665C22.6088 13.5334 22.3998 13.7423 22.3998 14C22.3998 14.2578 22.6088 14.4667 22.8665 14.4667H24.2549C24.0074 19.7668 19.7666 24.0076 14.4665 24.2551Z" fill="#FF0000"/>
    <path d="M20.0669 13.5333H15.3143C15.1172 12.9759 14.5913 12.6025 14.0003 12.5999C13.792 12.6006 13.5867 12.6485 13.3996 12.7399L13.3969 12.7358L8.26353 7.60242C8.08033 7.4256 7.78935 7.4281 7.60934 7.60811C7.42932 7.78813 7.42682 8.07911 7.60364 8.26231L12.737 13.3956L12.7411 13.3984C12.6495 13.5857 12.6012 13.7914 12.6003 13.9999C12.5989 14.681 13.089 15.2637 13.7603 15.3792C14.4316 15.4945 15.0881 15.109 15.3143 14.4666H20.0669C20.3246 14.4666 20.5336 14.2577 20.5336 13.9999C20.5336 13.7422 20.3246 13.5333 20.0669 13.5333ZM14.0003 14.4666C13.7425 14.4666 13.5336 14.2577 13.5336 13.9999C13.5336 13.7422 13.7425 13.5333 14.0003 13.5333C14.258 13.5333 14.4669 13.7422 14.4669 13.9999C14.4669 14.2577 14.258 14.4666 14.0003 14.4666Z" fill="#FF0000"/>
</svg>