<svg width="16" height="28" viewBox="0 0 16 28" fill="none" xmlns="http://www.w3.org/2000/svg">
    <path d="M13.811 0H2.05567C0.9226 0 0 0.9226 0 2.05567V25.9439C0 27.0774 0.9226 28 2.05567 28H13.8105C14.9441 28 15.8667 27.0774 15.8667 25.9443V2.05567C15.8667 0.9226 14.9441 0 13.811 0ZM0.933333 3.73333H14.9333V21.4667H0.933333V3.73333ZM2.05567 0.933333H13.8105C14.4298 0.933333 14.9333 1.43687 14.9333 2.05567V2.8H0.933333V2.05567C0.933333 1.43687 1.43687 0.933333 2.05567 0.933333ZM13.811 27.0667H2.05567C1.43687 27.0667 0.933333 26.5631 0.933333 25.9443V22.4H14.9333V25.9443C14.9333 26.5631 14.4298 27.0667 13.811 27.0667Z" fill="#FF0000"/>
    <path d="M7.93307 22.8667C6.90361 22.8667 6.06641 23.7039 6.06641 24.7334C6.06641 25.7628 6.90361 26.6 7.93307 26.6C8.96254 26.6 9.79974 25.7628 9.79974 24.7334C9.79974 23.7039 8.96254 22.8667 7.93307 22.8667ZM7.93307 25.6667C7.41834 25.6667 6.99974 25.2481 6.99974 24.7334C6.99974 24.2186 7.41834 23.8 7.93307 23.8C8.44781 23.8 8.86641 24.2186 8.86641 24.7334C8.86641 25.2481 8.44781 25.6667 7.93307 25.6667Z" fill="#FF0000"/>
    <path d="M6.06628 2.33336H7.93294C8.19101 2.33336 8.39961 2.12476 8.39961 1.86669C8.39961 1.60862 8.19101 1.40002 7.93294 1.40002H6.06628C5.80821 1.40002 5.59961 1.60862 5.59961 1.86669C5.59961 2.12476 5.80821 2.33336 6.06628 2.33336Z" fill="#FF0000"/>
    <path d="M9.33288 2.33336H9.79954C10.0576 2.33336 10.2662 2.12476 10.2662 1.86669C10.2662 1.60862 10.0576 1.40002 9.79954 1.40002H9.33288C9.07481 1.40002 8.86621 1.60862 8.86621 1.86669C8.86621 2.12476 9.07481 2.33336 9.33288 2.33336Z" fill="#FF0000"/>
</svg>