<svg width="28" height="28" viewBox="0 0 28 28" fill="none" xmlns="http://www.w3.org/2000/svg">
    <path d="M14.0001 12.1333C15.8014 12.1333 17.2667 10.6675 17.2667 8.86664C17.2667 7.06578 15.8014 5.59998 14.0001 5.59998C12.1987 5.59998 10.7334 7.06578 10.7334 8.86664C10.7334 10.6675 12.1987 12.1333 14.0001 12.1333ZM14.0001 6.53331C15.2867 6.53331 16.3334 7.58004 16.3334 8.86664C16.3334 10.1532 15.2867 11.2 14.0001 11.2C12.7135 11.2 11.6667 10.1532 11.6667 8.86664C11.6667 7.58004 12.7135 6.53331 14.0001 6.53331Z" fill="#FF0000"/>
    <path d="M13.9171 25.5533L21.0762 15.2133C23.7614 11.6335 23.3731 5.74933 20.2451 2.62173C18.5548 0.931 16.3073 0 13.9171 0C11.5268 0 9.27933 0.931 7.58906 2.62127C4.46099 5.74887 4.07272 11.6331 6.74719 15.1989L13.9171 25.5533ZM8.24892 3.28113C9.76326 1.76727 11.776 0.933333 13.9171 0.933333C16.0581 0.933333 18.0709 1.76727 19.5852 3.28113C22.4085 6.104 22.7562 11.4184 20.3193 14.6673L13.9171 23.9134L7.50459 14.6533C5.07792 11.4184 5.42606 6.104 8.24892 3.28113Z" fill="#FF0000"/>
    <path d="M19.6546 20.0699C19.3979 20.0387 19.1665 20.2225 19.1366 20.4787C19.1067 20.7349 19.2897 20.9669 19.5454 20.9967C24.4529 21.5745 27.0667 23.1313 27.0667 24.0333C27.0667 25.2999 22.0957 27.0667 14 27.0667C5.90427 27.0667 0.933333 25.2999 0.933333 24.0333C0.933333 23.1313 3.54713 21.5745 8.4546 20.9967C8.71033 20.9669 8.89327 20.7345 8.8634 20.4787C8.83307 20.2225 8.6016 20.0377 8.3454 20.0699C3.43187 20.6486 0 22.2782 0 24.0333C0 26.0045 4.809 28 14 28C23.191 28 28 26.0045 28 24.0333C28 22.2782 24.5681 20.6486 19.6546 20.0699Z" fill="#FF0000"/>
</svg>