<svg id="Слой_1" data-name="Слой 1" xmlns="http://www.w3.org/2000/svg" viewBox="0 0 512 512"><defs><style>.cls-1{fill:#fff;}</style></defs><path class="cls-1" d="M256,6.05c-102.4,0-199.66-9.12-236.79,86.21C3.8,131.68,6.08,182.81,6.08,256,6.08,320.16,4,380.62,19.2,419.68c37.05,95.38,135.1,86.24,236.73,86.24,98.07,0,199.17,10.13,236.76-86.24,15.39-39.77,13.12-90.15,13.12-163.69,0-97.65,5.39-160.69-42-208C415.85.09,351,6.05,255.83,6.05ZM233.55,51.14c213.61-.34,240.8-24.1,225.79,305.8C454,473.62,365.18,460.82,256,460.82c-199.1,0-204.83-5.7-204.83-204.9C51.13,54.4,66.92,51.24,233.52,51.07ZM389.43,92.62a30,30,0,1,0,29.89,30.09v-.14A30,30,0,0,0,389.43,92.62ZM256,127.64A128.35,128.35,0,1,0,384.36,256,128.34,128.34,0,0,0,256,127.64Zm0,45c110.13,0,110.28,166.63,0,166.63s-110.34-166.6,0-166.6Z"/></svg>